<?xml version="1.0" encoding="UTF-8"?>
<!DOCTYPE svg PUBLIC "-//W3C//DTD SVG 1.1//EN" "http://www.w3.org/Graphics/SVG/1.1/DTD/svg11.dtd">
<!-- Creator: CorelDRAW 2020 (64-Bit) -->
<svg xmlns="http://www.w3.org/2000/svg" xml:space="preserve" width="28.3446mm" height="10.8424mm" version="1.1" style="shape-rendering:geometricPrecision; text-rendering:geometricPrecision; image-rendering:optimizeQuality; fill-rule:evenodd; clip-rule:evenodd"
viewBox="0 0 160.01 61.21"
 xmlns:xlink="http://www.w3.org/1999/xlink"
 xmlns:xodm="http://www.corel.com/coreldraw/odm/2003">
 <defs>
  <style type="text/css">
   <![CDATA[
    .fil0 {fill:#FEFEFE;fill-rule:nonzero}
    .fil1 {fill:#FA7964;fill-rule:nonzero}
   ]]>
  </style>
 </defs>
 <g id="Слой_x0020_1">
  <metadata id="CorelCorpID_0Corel-Layer"/>
  <polygon class="fil0" points="9.48,33.19 16.59,33.19 16.59,6.64 26.07,6.64 26.07,0 -0,0 -0,6.64 9.48,6.64 "/>
  <path class="fil0" d="M31.29 33.19l7.11 0 0 -10.9 6.64 0 5.93 10.9 7.82 0 -6.87 -12.33c1.09,-0.47 2.04,-1.14 2.84,-1.99 1.47,-1.47 2.84,-3.94 2.84,-7.73 0,-6.64 -4.5,-11.14 -11.62,-11.14l-14.7 0 0 33.19zm7.11 -17.54l0 -9.01 7.35 0c2.65,0 4.5,1.85 4.5,4.5 0,2.65 -1.85,4.5 -4.5,4.5l-7.35 0z"/>
  <path class="fil0" d="M73.48 19.2l3.93 -10.9 0.19 0 3.94 10.9 -8.06 0zm-12.8 13.99l7.59 0 2.84 -7.59 12.8 0 2.84 7.59 7.59 0 -12.8 -33.19 -8.06 0 -12.8 33.19z"/>
  <path class="fil0" d="M98.85 33.19l12.09 0c10.19,0 17.54,-7.35 17.54,-16.59 0,-9.24 -7.35,-16.59 -17.54,-16.59l-12.09 0 0 33.19zm7.11 -6.64l0 -19.91 4.98 0c5.93,0 10.19,4.27 10.19,9.96 0,5.69 -4.27,9.96 -10.19,9.96l-4.98 0z"/>
  <polygon class="fil0" points="134.88,33.19 160.01,33.19 160.01,26.55 141.99,26.55 141.99,19.44 155.74,19.44 155.74,13.04 141.99,13.04 141.99,6.64 159.53,6.64 159.53,0 134.88,0 "/>
  <g id="_2613096808176">
   <path class="fil1" d="M76.32 52.73c0,2.58 2.01,4.58 4.58,4.58 2.58,0 4.58,-2.01 4.58,-4.58 0,-2.58 -2.01,-4.58 -4.58,-4.58 -2.58,0 -4.58,2.01 -4.58,4.58z"/>
   <path class="fil0" d="M94.72 60.86l3.48 0 0 -13 4.64 0 0 -3.25 -12.77 0 0 3.25 4.64 0 0 13zm13.48 0l12.3 0 0 -3.25 -8.82 0 0 -3.48 6.73 0 0 -3.13 -6.73 0 0 -3.13 8.59 0 0 -3.25 -12.07 0 0 16.25zm30.19 -5.22c-0.32,0.44 -0.72,0.81 -1.18,1.16 -0.81,0.58 -1.95,1.16 -3.46,1.16 -2.9,0 -5.22,-2.32 -5.22,-5.22 0,-2.9 2.32,-5.22 5.22,-5.22 1.46,0 2.58,0.58 3.34,1.16 0.44,0.35 0.84,0.72 1.18,1.16l2.32 -2.32c-0.49,-0.6 -1.04,-1.14 -1.72,-1.63 -1.14,-0.81 -2.88,-1.62 -5.13,-1.62 -5.01,0 -8.82,3.83 -8.82,8.47 0,4.64 3.81,8.47 8.82,8.47 2.32,0 4.04,-0.81 5.22,-1.63 0.67,-0.49 1.25,-1.02 1.74,-1.62l-2.32 -2.32zm7.68 5.22l3.48 0 0 -6.62 6.96 0 0 6.62 3.48 0 0 -16.25 -3.48 0 0 6.38 -6.96 0 0 -6.38 -3.48 0 0 16.25z"/>
  </g>
 </g>
</svg>
