<?xml version="1.0" encoding="UTF-8"?>
<!DOCTYPE svg PUBLIC "-//W3C//DTD SVG 1.1//EN" "http://www.w3.org/Graphics/SVG/1.1/DTD/svg11.dtd">
<!-- Creator: CorelDRAW 2020 (64-Bit) -->
<svg xmlns="http://www.w3.org/2000/svg" xml:space="preserve" width="25.885mm" height="18.5267mm" version="1.1" style="shape-rendering:geometricPrecision; text-rendering:geometricPrecision; image-rendering:optimizeQuality; fill-rule:evenodd; clip-rule:evenodd"
viewBox="0 0 132.02 94.49"
 xmlns:xlink="http://www.w3.org/1999/xlink"
 xmlns:xodm="http://www.corel.com/coreldraw/odm/2003">
 <defs>
  <style type="text/css">
   <![CDATA[
    .fil1 {fill:#FEFEFE;fill-rule:nonzero}
    .fil0 {fill:#FA7964;fill-rule:nonzero}
   ]]>
  </style>
 </defs>
 <g id="Слой_x0020_1">
  <metadata id="CorelCorpID_0Corel-Layer"/>
  <path class="fil0" d="M46.98 53.21l-0 -0.22c0.35,-11.44 5.19,-21.74 12.83,-29.19 7.67,-7.48 18.15,-12.09 29.69,-12.09 11.54,0 22.02,4.61 29.69,12.09 7.64,7.45 12.48,17.75 12.83,29.19l0.01 0.22c-0.35,11.44 -5.2,21.74 -12.83,29.19 -7.67,7.48 -18.15,12.09 -29.69,12.09 -11.54,0 -22.02,-4.61 -29.69,-12.09 -7.64,-7.45 -12.48,-17.75 -12.83,-29.19zm22.79 -19.16c-5,4.88 -8.21,11.6 -8.51,19.05 0.3,7.45 3.5,14.17 8.51,19.05 5.08,4.95 12.04,8.01 19.72,8.01 7.68,0 14.64,-3.05 19.72,-8.01 5,-4.88 8.2,-11.6 8.51,-19.05 -0.3,-7.45 -3.5,-14.17 -8.51,-19.05 -5.08,-4.95 -12.04,-8.01 -19.72,-8.01 -7.68,0 -14.64,3.05 -19.72,8.01z"/>
  <path class="fil1" d="M3.27 11.48l-3.27 0 0 -3.85 3.27 0 0 -3.89 4.14 0 0 3.89 6.1 0 0 3.85 -6.1 0 0 7.3c0,0.56 0.02,1.03 0.07,1.42 0.05,0.39 0.15,0.81 0.29,1.27 0.15,0.46 0.39,0.81 0.74,1.05 0.35,0.24 0.79,0.36 1.33,0.36 0.94,0 1.84,-0.53 2.69,-1.6l2.47 2.33c-0.56,0.97 -1.37,1.73 -2.43,2.29 -1.07,0.56 -2.18,0.84 -3.34,0.84 -1.99,0 -3.48,-0.62 -4.47,-1.87 -0.99,-1.25 -1.49,-2.89 -1.49,-4.92l0 -8.46z"/>
  <path class="fil1" d="M23.64 26.52l-4.14 0 0 -18.89 4.14 0 0 1.27c0.12,-0.24 0.34,-0.48 0.65,-0.73 0.7,-0.63 1.62,-0.94 2.76,-0.94 0.65,0 1.31,0.1 1.96,0.29 0.63,0.22 1.22,0.68 1.78,1.38l-2.36 3.02c-0.36,-0.56 -0.99,-0.84 -1.89,-0.84 -0.75,0 -1.37,0.25 -1.87,0.74 -0.5,0.5 -0.84,1.13 -1.04,1.91l0 12.79z"/>
  <path class="fil1" d="M37.39 13.04l-2.03 -3.05c0.94,-0.9 2.14,-1.59 3.6,-2.07 1.45,-0.48 2.89,-0.73 4.32,-0.73 2.49,0 4.41,0.67 5.74,2.02 1.33,1.34 2,3.26 2,5.76l0 11.55 -4.14 0 0 -2.07c-1.38,1.53 -3.33,2.29 -5.85,2.29 -1.96,0 -3.6,-0.51 -4.9,-1.54 -1.31,-1.03 -1.96,-2.5 -1.96,-4.41 0,-1.16 0.27,-2.16 0.8,-2.98 0.53,-0.82 1.26,-1.44 2.18,-1.85 0.92,-0.41 1.85,-0.71 2.8,-0.89 0.94,-0.18 1.96,-0.27 3.05,-0.27 1.43,0 2.72,0.17 3.89,0.51 0.05,-1.33 -0.24,-2.39 -0.87,-3.16 -0.63,-0.73 -1.7,-1.09 -3.2,-1.09 -1.87,0 -3.67,0.67 -5.41,2zm4.54 10.1c0.99,0 1.94,-0.23 2.83,-0.69 0.9,-0.46 1.6,-1.09 2.11,-1.89l0 -1.82c-1.21,-0.34 -2.36,-0.51 -3.45,-0.51 -3.32,0 -4.98,0.84 -4.98,2.51 0,0.82 0.36,1.43 1.07,1.82 0.71,0.39 1.52,0.58 2.42,0.58z"/>
  <path class="fil1" d="M75.13 26.52l-4.14 0 0 -2.07c-0.73,0.97 -1.82,1.67 -3.27,2.11 -0.68,0.17 -1.36,0.25 -2.03,0.25 -2.83,0 -5.06,-0.91 -6.68,-2.74 -1.62,-1.83 -2.43,-4.15 -2.43,-6.96 0,-2.76 0.89,-5.1 2.67,-7.03 1.78,-1.93 4.03,-2.89 6.74,-2.89 2.25,0 3.92,0.47 5.01,1.42l0 -8.61 4.14 0 0 26.52zm-8.68 -3.56c0.46,0 1.01,-0.11 1.64,-0.33 0.58,-0.17 1.14,-0.5 1.67,-1 0.53,-0.5 0.94,-1.04 1.24,-1.62l0 -6.9c-0.97,-1.38 -2.41,-2.07 -4.32,-2.07 -1.74,0 -3.15,0.57 -4.21,1.71 -1.07,1.14 -1.6,2.57 -1.6,4.29 0,1.74 0.5,3.17 1.51,4.27 1.01,1.1 2.37,1.65 4.09,1.65z"/>
  <path class="fil1" d="M96.04 20.49l2.54 2.51c-1.89,2.57 -4.44,3.85 -7.67,3.85 -3.03,0 -5.47,-0.9 -7.34,-2.69 -1.86,-1.79 -2.8,-4.17 -2.8,-7.12 0,-2.98 0.89,-5.36 2.67,-7.16 1.78,-1.79 4.12,-2.69 7.03,-2.69 2.62,0 4.75,0.81 6.39,2.42 1.65,1.61 2.47,3.69 2.47,6.23 0,0.63 -0.07,1.51 -0.22,2.65l-14.02 0c0.17,1.48 0.8,2.6 1.91,3.36 1.1,0.76 2.43,1.14 3.98,1.14 0.97,0 1.91,-0.22 2.83,-0.67 0.92,-0.45 1.66,-1.06 2.22,-1.83zm-5.74 -9.55c-1.31,0 -2.43,0.35 -3.36,1.05 -0.93,0.7 -1.53,1.67 -1.8,2.91l9.92 0c-0.36,-2.64 -1.95,-3.96 -4.76,-3.96z"/>
  <g id="_2612767748592">
   <path class="fil1" d="M3.27 46.62l-3.27 0 0 -3.85 3.27 0 0 -3.89 4.14 0 0 3.89 6.1 0 0 3.85 -6.1 0 0 8.37c0,0.56 0.02,1.03 0.07,1.42 0.05,0.39 0.15,0.81 0.29,1.27 0.15,0.46 0.39,0.81 0.74,1.05 0.35,0.24 0.79,0.36 1.33,0.36 0.94,0 1.84,-0.53 2.69,-1.6l2.47 2.32c-0.56,0.97 -1.37,1.73 -2.43,2.29 -1.07,0.56 -2.18,0.84 -3.34,0.84 -1.99,0 -3.48,-0.62 -4.47,-1.87 -0.99,-1.25 -1.49,-2.89 -1.49,-4.92l0 -9.53z"/>
   <path class="fil1" d="M33.12 55.63l2.54 2.51c-1.89,2.57 -4.44,3.85 -7.67,3.85 -3.03,0 -5.47,-0.9 -7.34,-2.69 -1.86,-1.79 -2.8,-4.17 -2.8,-7.12 0,-2.98 0.89,-5.36 2.67,-7.16 1.78,-1.79 4.12,-2.69 7.03,-2.69 2.62,0 4.75,0.81 6.39,2.42 1.65,1.61 2.47,3.69 2.47,6.23 0,0.63 -0.07,1.51 -0.22,2.65l-14.02 0c0.17,1.48 0.8,2.6 1.91,3.36 1.1,0.76 2.43,1.14 3.98,1.14 0.97,0 1.91,-0.22 2.83,-0.67 0.92,-0.45 1.66,-1.06 2.22,-1.83zm-5.74 -9.55c-1.31,0 -2.43,0.35 -3.36,1.05 -0.93,0.7 -1.53,1.67 -1.8,2.91l9.92 0c-0.36,-2.64 -1.95,-3.96 -4.76,-3.96z"/>
   <path class="fil1" d="M56.17 55.45l2.94 1.89c-0.78,1.45 -1.9,2.59 -3.36,3.41 -1.47,0.82 -3.05,1.24 -4.74,1.24 -3.03,0 -5.48,-0.9 -7.36,-2.69 -1.88,-1.79 -2.82,-4.17 -2.82,-7.12 0,-2.88 0.95,-5.24 2.85,-7.08 1.9,-1.84 4.27,-2.76 7.1,-2.76 1.7,0 3.29,0.36 4.78,1.09 1.49,0.73 2.6,1.79 3.32,3.2l-3.09 2.03c-1.24,-1.65 -2.85,-2.47 -4.83,-2.47 -1.74,0 -3.15,0.56 -4.23,1.67 -1.08,1.11 -1.62,2.55 -1.62,4.32 0,1.79 0.6,3.23 1.8,4.32 1.2,1.09 2.69,1.63 4.49,1.63 1.96,0 3.55,-0.9 4.76,-2.69z"/>
   <path class="fil1" d="M68.08 61.66l-4.14 0 0 -26.52 4.14 0 0 9.26c1.36,-1.36 3.18,-2.03 5.49,-2.03 5.23,0 7.85,2.88 7.85,8.65l0 10.64 -4.14 0 0 -10.39c0,-1.7 -0.35,-2.96 -1.05,-3.8 -0.7,-0.84 -1.88,-1.25 -3.52,-1.25 -2.03,0 -3.57,1.04 -4.61,3.12l0 12.32z"/>
  </g>
 </g>
</svg>
