<?xml version="1.0" encoding="UTF-8"?>
<!DOCTYPE svg PUBLIC "-//W3C//DTD SVG 1.1//EN" "http://www.w3.org/Graphics/SVG/1.1/DTD/svg11.dtd">
<!-- Creator: CorelDRAW 2020 (64-Bit) -->
<svg xmlns="http://www.w3.org/2000/svg" xml:space="preserve" width="33.6001mm" height="4.8658mm" version="1.1" style="shape-rendering:geometricPrecision; text-rendering:geometricPrecision; image-rendering:optimizeQuality; fill-rule:evenodd; clip-rule:evenodd"
viewBox="0 0 226.07 32.74"
 xmlns:xlink="http://www.w3.org/1999/xlink"
 xmlns:xodm="http://www.corel.com/coreldraw/odm/2003">
 <defs>
  <style type="text/css">
   <![CDATA[
    .fil0 {fill:#FEFEFE;fill-rule:nonzero}
    .fil1 {fill:#FA7964;fill-rule:nonzero}
   ]]>
  </style>
 </defs>
 <g id="Слой_x0020_1">
  <metadata id="CorelCorpID_0Corel-Layer"/>
  <path class="fil0" d="M3.34 11.73l-3.34 0 0 -3.93 3.34 0 0 -3.97 4.23 0 0 3.97 6.23 0 0 3.93 -6.23 0 0 7.46c0,0.57 0.02,1.05 0.07,1.45 0.05,0.4 0.15,0.83 0.3,1.3 0.15,0.47 0.4,0.83 0.76,1.08 0.36,0.25 0.81,0.37 1.35,0.37 0.96,0 1.88,-0.54 2.75,-1.63l2.52 2.37c-0.57,0.99 -1.4,1.77 -2.49,2.34 -1.09,0.57 -2.23,0.85 -3.41,0.85 -2.03,0 -3.55,-0.64 -4.56,-1.91 -1.01,-1.27 -1.52,-2.95 -1.52,-5.03l0 -8.65z"/>
  <path class="fil0" d="M24.14 27.09l-4.23 0 0 -19.29 4.23 0 0 1.3c0.12,-0.25 0.35,-0.49 0.67,-0.74 0.72,-0.64 1.66,-0.96 2.82,-0.96 0.67,0 1.34,0.1 2,0.3 0.64,0.22 1.25,0.69 1.82,1.41l-2.41 3.08c-0.37,-0.57 -1.01,-0.85 -1.93,-0.85 -0.77,0 -1.4,0.25 -1.91,0.76 -0.51,0.51 -0.86,1.16 -1.06,1.95l0 13.06z"/>
  <path class="fil0" d="M38.19 13.32l-2.08 -3.12c0.96,-0.92 2.19,-1.62 3.67,-2.12 1.48,-0.49 2.96,-0.74 4.42,-0.74 2.55,0 4.5,0.69 5.86,2.06 1.36,1.37 2.04,3.33 2.04,5.88l0 11.8 -4.23 0 0 -2.11c-1.41,1.56 -3.4,2.34 -5.97,2.34 -2,0 -3.67,-0.53 -5.01,-1.58 -1.34,-1.05 -2,-2.55 -2,-4.51 0,-1.19 0.27,-2.2 0.82,-3.04 0.54,-0.84 1.29,-1.47 2.23,-1.89 0.94,-0.42 1.89,-0.72 2.86,-0.91 0.96,-0.19 2,-0.28 3.12,-0.28 1.46,0 2.78,0.17 3.97,0.52 0.05,-1.36 -0.25,-2.44 -0.89,-3.23 -0.64,-0.74 -1.73,-1.11 -3.27,-1.11 -1.9,0 -3.75,0.68 -5.53,2.04zm4.64 10.31c1.01,0 1.98,-0.23 2.89,-0.7 0.92,-0.47 1.63,-1.11 2.15,-1.93l0 -1.85c-1.24,-0.35 -2.41,-0.52 -3.52,-0.52 -3.39,0 -5.08,0.85 -5.08,2.56 0,0.84 0.36,1.46 1.09,1.85 0.73,0.4 1.55,0.59 2.47,0.59z"/>
  <path class="fil0" d="M76.73 27.09l-4.23 0 0 -2.11c-0.74,0.99 -1.85,1.71 -3.34,2.15 -0.69,0.17 -1.39,0.26 -2.08,0.26 -2.89,0 -5.17,-0.93 -6.83,-2.8 -1.66,-1.87 -2.49,-4.24 -2.49,-7.11 0,-2.82 0.91,-5.21 2.73,-7.18 1.82,-1.97 4.11,-2.95 6.88,-2.95 2.3,0 4.01,0.48 5.12,1.45l0 -8.79 4.23 0 0 27.09zm-8.87 -3.64c0.47,0 1.03,-0.11 1.67,-0.33 0.59,-0.17 1.16,-0.51 1.71,-1.02 0.54,-0.51 0.96,-1.06 1.26,-1.65l0 -7.05c-0.99,-1.41 -2.46,-2.11 -4.42,-2.11 -1.78,0 -3.22,0.58 -4.3,1.74 -1.09,1.16 -1.63,2.62 -1.63,4.38 0,1.78 0.51,3.23 1.54,4.36 1.03,1.12 2.42,1.69 4.17,1.69z"/>
  <path class="fil0" d="M98.09 20.93l2.6 2.56c-1.93,2.62 -4.54,3.93 -7.83,3.93 -3.09,0 -5.59,-0.92 -7.5,-2.75 -1.9,-1.83 -2.86,-4.25 -2.86,-7.27 0,-3.04 0.91,-5.48 2.73,-7.31 1.82,-1.83 4.21,-2.75 7.18,-2.75 2.67,0 4.85,0.82 6.53,2.47 1.68,1.64 2.52,3.77 2.52,6.36 0,0.64 -0.07,1.55 -0.22,2.71l-14.32 0c0.17,1.51 0.82,2.65 1.95,3.43 1.13,0.78 2.48,1.17 4.06,1.17 0.99,0 1.95,-0.23 2.89,-0.69 0.94,-0.46 1.69,-1.08 2.26,-1.87zm-5.86 -9.76c-1.34,0 -2.48,0.36 -3.43,1.08 -0.95,0.72 -1.56,1.71 -1.84,2.97l10.13 0c-0.37,-2.7 -1.99,-4.04 -4.86,-4.04z"/>
  <path class="fil0" d="M146.26 11.72l-3.34 0 0 -3.93 3.34 0 0 -3.97 4.23 0 0 3.97 6.23 0 0 3.93 -6.23 0 0 8.55c0,0.57 0.02,1.05 0.07,1.45 0.05,0.4 0.15,0.83 0.3,1.3 0.15,0.47 0.4,0.83 0.76,1.08 0.36,0.25 0.81,0.37 1.35,0.37 0.96,0 1.88,-0.54 2.75,-1.63l2.52 2.37c-0.57,0.99 -1.4,1.77 -2.49,2.34 -1.09,0.57 -2.23,0.85 -3.41,0.85 -2.03,0 -3.55,-0.64 -4.56,-1.91 -1.01,-1.27 -1.52,-2.95 -1.52,-5.03l0 -9.73z"/>
  <path class="fil0" d="M176.75 20.93l2.6 2.56c-1.93,2.62 -4.54,3.93 -7.83,3.93 -3.09,0 -5.59,-0.92 -7.5,-2.75 -1.9,-1.83 -2.86,-4.25 -2.86,-7.27 0,-3.04 0.91,-5.48 2.73,-7.31 1.82,-1.83 4.21,-2.75 7.18,-2.75 2.67,0 4.85,0.82 6.53,2.47 1.68,1.64 2.52,3.77 2.52,6.36 0,0.64 -0.07,1.55 -0.22,2.71l-14.32 0c0.17,1.51 0.82,2.65 1.95,3.43 1.13,0.78 2.48,1.17 4.06,1.17 0.99,0 1.95,-0.23 2.89,-0.69 0.94,-0.46 1.69,-1.08 2.26,-1.87zm-5.86 -9.76c-1.34,0 -2.48,0.36 -3.43,1.08 -0.95,0.72 -1.56,1.71 -1.84,2.97l10.13 0c-0.37,-2.7 -1.99,-4.04 -4.86,-4.04z"/>
  <path class="fil0" d="M200.3 20.74l3.01 1.93c-0.79,1.48 -1.94,2.65 -3.43,3.49 -1.5,0.84 -3.11,1.26 -4.84,1.26 -3.09,0 -5.6,-0.92 -7.51,-2.75 -1.92,-1.83 -2.88,-4.25 -2.88,-7.27 0,-2.94 0.97,-5.36 2.91,-7.24 1.94,-1.88 4.36,-2.82 7.25,-2.82 1.73,0 3.36,0.37 4.88,1.11 1.52,0.74 2.65,1.83 3.4,3.27l-3.15 2.08c-1.26,-1.68 -2.91,-2.52 -4.93,-2.52 -1.78,0 -3.22,0.57 -4.32,1.71 -1.1,1.14 -1.65,2.61 -1.65,4.42 0,1.83 0.61,3.3 1.84,4.42 1.22,1.11 2.75,1.67 4.58,1.67 2,0 3.62,-0.92 4.86,-2.75z"/>
  <path class="fil0" d="M212.45 27.09l-4.23 0 0 -27.09 4.23 0 0 9.46c1.39,-1.39 3.25,-2.08 5.6,-2.08 5.34,0 8.01,2.94 8.01,8.83l0 10.87 -4.23 0 0 -10.61c0,-1.73 -0.36,-3.02 -1.08,-3.88 -0.72,-0.85 -1.92,-1.28 -3.6,-1.28 -2.08,0 -3.65,1.06 -4.71,3.19l0 12.58z"/>
  <path class="fil1" d="M107.55 18.1l-0 -0.08c0.12,-4.06 1.84,-7.71 4.55,-10.35 2.72,-2.65 6.44,-4.29 10.53,-4.29 4.09,0 7.81,1.63 10.53,4.29 2.71,2.64 4.43,6.29 4.55,10.35l0 0.08c-0.12,4.06 -1.84,7.71 -4.55,10.35 -2.72,2.65 -6.44,4.29 -10.53,4.29 -4.09,0 -7.81,-1.63 -10.53,-4.29 -2.71,-2.64 -4.43,-6.29 -4.55,-10.35zm8.08 -6.79c-1.77,1.73 -2.91,4.11 -3.02,6.76 0.11,2.64 1.24,5.02 3.02,6.76 1.8,1.76 4.27,2.84 6.99,2.84 2.72,0 5.19,-1.08 6.99,-2.84 1.77,-1.73 2.91,-4.11 3.02,-6.76 -0.11,-2.64 -1.24,-5.03 -3.02,-6.76 -1.8,-1.76 -4.27,-2.84 -6.99,-2.84 -2.72,0 -5.19,1.08 -6.99,2.84z"/>
 </g>
</svg>
